<?xml version="1.0" encoding="utf-8"?>
<!-- Generator: Adobe Illustrator 27.0.0, SVG Export Plug-In . SVG Version: 6.00 Build 0)  -->
<svg version="1.1" id="Layer_1" xmlns="http://www.w3.org/2000/svg" xmlns:xlink="http://www.w3.org/1999/xlink" x="0px" y="0px"
	 viewBox="0 0 995 1405" style="enable-background:new 0 0 995 1405;" xml:space="preserve">
<style type="text/css">
	.st0{fill:#918666;}
</style>
<g transform="translate(0.000000,1405.000000) scale(0.100000,-0.100000)">
	<path class="st0" d="M4381,10474c-129-35-235-65-237-67s0-37,6-78c17-131,21-121-77-174c-49-26-122-70-163-98s-79-50-85-50
		c-5,0-49,25-96,56l-86,55l-182-182c-99-99-181-185-181-189s25-43,55-86s55-84,55-90c0-5-21-43-47-84c-27-40-68-115-93-165l-44-92
		l-46,5c-25,2-75,7-111,10l-65,5l-68-251c-37-138-64-254-61-258c4-3,47-24,97-47l90-40l1-196l2-196l-98-49c-70-34-97-52-94-63
		c2-8,32-122,67-253l63-238l45,3l46,3l118,155c65,85,129,171,142,190l24,35l-20,90c-25,117-36,417-18,536c53,369,205,665,483,948
		c250,253,548,407,889,457c148,22,389,15,533-16c444-94,837-354,1079-715c181-269,285-685,256-1021c-9-102-32-241-46-277
		c-2-7,58-97,134-202l138-190l54-3l55-3l66,248l66,248l-95,48l-94,48l6,37c3,20,6,110,6,200v163l81,39c44,21,86,41,92,43
		c9,3-26,147-115,476l-10,34l-101-6l-102-7l-37,78c-20,42-64,121-98,175l-61,97l55,79c31,44,56,83,56,87c0,5-82,91-182,191l-181,181
		l-74-49c-40-27-79-52-87-55c-7-3-55,22-107,56c-52,33-129,77-172,98l-77,37l5,40c3,22,6,69,7,104l3,64l-249,68
		c-138,38-251,68-252,66c-1-1-23-44-48-95c-35-70-51-92-62-88c-9,3-101,6-205,6h-189l-45,90c-32,64-50,90-63,89
		C4623,10538,4510,10509,4381,10474z"/>
	<path class="st0" d="M4860,9737c-52-27-103-97-125-170c-9-29-20-112-25-185c-11-143-4-234,30-427c39-220,90-529,87-531
		c-1-2-22,70-46,159c-135,501-150,549-215,682c-74,150-138,229-218,269c-110,55-207,15-247-103c-22-68-8-224,30-326
		c25-67,151-278,245-411c119-168,233-334,229-334c-2,0-56,68-121,152c-166,214-243,303-332,380c-168,148-324,185-407,98
		c-28-29-30-37-30-103c0-60,5-82,29-129c65-129,160-208,505-423c122-75,221-139,221-142c0-2-15,4-32,15c-350,211-527,291-686,313
		c-92,12-145,2-191-37c-126-106,13-294,274-373c39-12,189-41,335-66c146-24,279-47,295-50c30-6,30-5,56,69c18,54,22,79,15,86
		c-8,8-7,9,5,5c10-4,30,13,64,55c26,33,52,60,58,60c5,0,3,8-4,17c-10,11-10,14-2,9c8-4,46,9,90,31c71,35,84,38,180,41
		c85,3,103,7,107,20c3,10,17,80,30,157c14,77,39,217,55,310c17,94,38,226,47,295c39,301-31,533-178,594
		C4937,9766,4911,9764,4860,9737z M4987,9663c87-57,141-284,114-485c-10-78-113-659-126-715c-4-19-12-23-40-23c-19,0-35,3-35,6
		c0,4-25,151-55,327c-77,445-86,645-35,780C4855,9673,4915,9710,4987,9663z M4316,9464c90-43,191-208,264-434
		c59-180,174-630,164-640c-5-5-20-11-34-14c-23-6-35,8-153,186c-70,106-155,231-187,278c-33,47-78,118-101,158
		C4111,9275,4138,9548,4316,9464z M3978,8929c95-47,207-161,413-419c175-219,186-236,172-253c-19-20-19-20-258,131
		c-369,233-437,288-485,388c-31,63-38,144-15,167C3832,8971,3907,8965,3978,8929z M3860,8423c81-27,280-127,483-243
		c92-52,127-78,127-91c0-11-6-19-12-19c-40,0-546,93-604,111c-140,43-243,116-260,184C3571,8457,3685,8482,3860,8423z M4631,8333
		c13-16,12-17-3-4c-10,7-18,15-18,17C4610,8354,4618,8349,4631,8333z M4520,8164c0-2-9,0-20,6s-20,13-20,16c0,2,9,0,20-6
		S4520,8167,4520,8164z"/>
	<path class="st0" d="M5535,9536c-95-44-179-157-260-346c-28-65-235-789-235-820c0-4,19-13,41-20c23-8,61-26,84-41
		c33-21,46-24,55-16c10,9,11,9,6,0c-4-8,14-38,45-75c52-63,79-114,99-188c10-38,13-41,38-36c15,3,101,17,192,31
		c442,67,571,106,686,207c72,63,98,171,56,227c-38,51-78,66-177,65c-133-1-241-42-490-184c-160-91-235-131-235-126
		c0,2,78,52,173,111c361,224,433,283,506,409c74,129,66,241-20,288c-50,28-141,20-223-21c-129-64-238-175-488-499
		c-77-100-146-186-152-189c-6-4,3,11,20,32c74,95,367,529,422,626c76,132,105,229,106,354c1,77-3,97-24,140
		C5713,9558,5635,9583,5535,9536z M5684,9447c16-22,22-46,24-111c3-71,0-95-28-176c-32-98-105-230-199-359c-29-42-107-156-173-253
		c-65-98-122-178-128-178c-5,0-20,5-33,11l-23,10l59,232c110,436,196,658,295,769c62,68,98,89,146,86C5653,9476,5668,9468,5684,9447
		z M6078,8943c21-29,14-96-18-159c-54-109-113-156-495-401c-227-145-229-146-247-126c-15,17-3,34,153,233c187,237,286,345,372,404
		C5945,8964,6046,8985,6078,8943z M6260,8431c16-12,26-30,28-51c3-28-4-39-46-80c-98-94-220-134-595-196c-211-35-221-36-234-19
		c-12,17-7,22,50,53c34,19,136,76,227,127s190,104,220,117C6077,8456,6199,8473,6260,8431z"/>
	<path class="st0" d="M3712,8043c-89-21-142-71-142-134c0-122,134-189,355-175c82,4,493,73,558,92c15,5,17,15,14,77l-4,72l-99,17
		C4015,8059,3836,8073,3712,8043z M4199,7954c262-43,283-54,159-79c-35-8-148-28-253-45c-214-36-310-36-386-2c-97,43-104,92-20,135
		C3780,8004,3914,8001,4199,7954z"/>
	<path class="st0" d="M5880,8055c-8-2-124-20-257-41l-243-38v-72c0-49,4-73,13-77c7-2,94-20,194-38s181-35,179-36c-2-2-44,1-94,7
		c-156,17-335-10-462-72c-125-61-230-198-247-323l-6-50l-19,74c-22,92-54,147-123,215c-159,157-495,207-769,115
		c-119-40-244-103-280-141c-25-27-28-37-23-75c9-78,85-134,156-113c18,5,54,23,80,39c127,82,269,114,412,93c100-14,179-53,246-118
		c41-41,55-64,72-119c12-37,21-84,21-104c-1-46-23-149-38-178c-32-58-1-103,77-111c77-7,117,11,135,61c19,51,46,153,47,182
		c1,11,5-2,10-30c11-69,49-182,64-195c21-18,109-24,149-10c55,18,63,45,36,116c-32,85-37,190-14,266c48,160,237,263,449,245
		c99-9,179-36,271-92c61-37,89-48,121-48c96-1,162,103,114,180c-23,37-181,119-304,159l-72,23l70-7c127-13,276-8,330,11
		c111,39,162,126,120,207c-35,67-136,100-300,99C5940,8058,5888,8056,5880,8055z M6181,7963c39-20,55-35,57-51c8-54-79-101-197-109
		c-73-5-314,28-514,70c-128,27-110,37,143,80c154,27,236,35,331,36C6119,7990,6130,7988,6181,7963z M4433,7710
		c247-29,418-157,463-348c33-141-4-401-60-416c-37-10-94-6-98,6c-3,7,4,44,14,82c32,123,19,268-31,350c-48,77-148,146-256,177
		c-63,18-231,17-305,0c-64-16-167-60-210-91c-88-63-179-25-156,65c5,19,27,35,99,69C4096,7702,4244,7731,4433,7710z M5790,7689
		c47-12,135-45,197-74c137-65,158-94,110-151c-34-39-71-36-154,14c-283,170-650,115-767-116c-47-93-53-249-14-358c17-48,6-64-46-64
		c-55,0-71,15-91,83c-43,143-39,307,10,415c32,69,121,162,193,200C5380,7719,5590,7738,5790,7689z"/>
	<path class="st0" d="M3314,7913c-66-213-153-317-318-379c-116-44-162-71-230-135c-265-247-174-684,169-820c53-21,77-24,207-24
		c189-1,181,7,183-157c4-197,45-312,152-429c97-105,187-151,327-169c168-21,332,35,450,154c33,34,70,78,81,99c11,20,25,37,31,37
		s14-26,17-60c14-131,75-252,178-351c216-208,554-204,772,9c90,88,146,206,162,340c8,75,23,79,59,19c62-107,223-215,350-238
		c84-14,213-7,281,17c217,74,368,304,367,559c-1,158,22,185,142,165c108-17,251,16,349,81c109,72,195,207,218,342
		c24,147-23,295-133,413c-50,53-78,73-157,110c-216,103-220,105-277,167c-62,69-113,164-121,226c-5,37-9,41-33,41h-27l-7-117
		c-12-201-35-276-145-467c-83-143-93-173-94-281c-2-157,49-298,146-403c65-70,76-102,83-232c18-302-146-514-430-560
		c-91-14-182,1-266,46c-78,41-125,86-175,169c-47,80-66,144-66,235c0,186,93,330,267,412c165,77,326,55,439-61c60-63,81-52,63,34
		c-9,41-23,62-93,134c-119,124-119,124-110,302c5,107,4,149-5,154c-7,4-14-2-17-16c-4-13-24-59-45-102c-44-87-147-198-305-330
		c-182-152-282-315-283-464c0-36-3-43-20-43c-10,0-25,10-31,23c-6,12-28,42-47,67c-25,31-28,38-10,22l25-23l6,56c6,62,39,139,99,234
		c74,118,118,231,90,231c-4,0-24-16-43-36c-88-94-285-215-418-259c-39-13-50-20-40-26c10-7,6-8-11-4c-14,3-74,9-133,15
		c-60,5-127,15-150,21c-77,20-171,77-312,187c-119,93-141,107-143,90c-7-38,30-109,100-196c90-112,102-135,102-203c1-48-5-65-43-127
		c-56-94-76-96-84-9c-13,144-77,249-249,409c-270,252-291,275-343,381c-26,53-52,97-57,97c-7,0-8-49-3-150c6-140,5-153-14-193
		c-11-24-46-65-77-91c-85-74-114-119-114-178c0-26,5-48,10-48c6,0,37,25,70,55c69,63,89,73,178,86c179,26,379-78,460-237
		c54-106,65-163,53-257c-22-166-119-304-258-370c-168-78-404-31-539,109c-123,128-167,306-129,517c13,75,17,82,69,137
		c100,105,152,256,144,419c-4,95-6,99-132,340c-71,134-97,233-104,384c-5,115-5,117-29,117C3329,7930,3317,7923,3314,7913z
		 M3202,7409c121-25,234-115,286-227c24-50,27-69,27-162c0-97-2-110-31-170c-39-82-109-152-194-193c-60-30-72-32-165-32
		c-97,0-104,2-177,38c-331,163-283,645,72,741C3088,7422,3133,7423,3202,7409z M6921,7382c83-40,153-110,193-192c29-60,31-73,31-170
		c0-93-3-111-27-163c-55-118-168-205-297-229c-170-32-352,65-429,229c-24,52-27,70-27,163c0,97,2,110,31,170c49,103,146,187,253,217
		C6726,7429,6846,7418,6921,7382z M5045,6474c264-68,401-363,285-611c-33-72-105-154-168-190c-270-159-608-1-662,310
		c-23,130,19,261,115,365C4726,6469,4887,6516,5045,6474z"/>
	<path class="st0" d="M4110,7386l-21-44l20-59c10-32,22-83,26-113c10-89,16-110,30-110c18,0,26,25,32,106c8,107-25,264-56,264
		C4136,7430,4122,7410,4110,7386z"/>
	<path class="st0" d="M4269,7385l-20-46l26-53c17-35,28-78,32-125c6-73,21-109,41-97c16,10,35,114,29,163c-4,35-1,43,14,48
		c10,4,23,4,29,0c30-19,80,52,80,114c0,42-18,48-45,15l-23-29l-11,28c-12,32-26,35-41,7c-6-11-19-20-30-20s-24,9-30,20
		C4304,7441,4291,7434,4269,7385z"/>
	<path class="st0" d="M5358,7385l-22-45l23-45c13-26,28-79,33-118c15-113,17-119,35-115c22,4,33,46,36,138l2,75h38c48,0,73,28,83,91
		c9,62-8,79-40,39l-23-29l-13,25c-19,36-19,36-44,4l-23-29l-25,27c-14,15-28,27-32,27C5383,7430,5370,7410,5358,7385z"/>
	<path class="st0" d="M5632,7391c-17-54-15-62,14-120c15-27,36-85,48-128c23-81,43-100,57-53c31,107,44,141,71,183
		c28,43,30,52,23,102c-4,32-11,55-18,55c-15,0-57-61-78-114c-16-38-17-39-23-16c-14,47-59,130-71,130C5648,7430,5638,7413,5632,7391
		z"/>
	<path class="st0" d="M3821,5023c-33-38-61-75-61-84c0-29,60-376,69-403c16-40,39-32,64,22c20,44,22,62,22,252c0,200-7,280-25,280
		C3886,5090,3854,5060,3821,5023z"/>
	<path class="st0" d="M6567,5043l-67-47l5-110c14-275,16-294,39-328c28-43,94-61,190-53c75,6,129,27,151,57c13,20,14,20,49-7
		c41-31,98-54,137-55c14,0,42,11,61,24c34,22,35,23,47,5c16-26,72-25,96,1c18,20,19,20,39,2c34-31,53-32,90-7c20,14,36,21,36,16
		s16-16,35-26c27-12,49-15,91-9c113,14,148,67,142,214c-3,67-9,95-28,129c-14,25-30,46-37,48c-6,2-30-24-53-57l-42-62l36-37
		c20-20,36-40,36-44s-32-7-71-5l-71,3l-12,35c-7,24-18,36-33,38c-18,3-24-4-33-38c-9-33-15-41-32-38c-13,2-24,15-32,38
		c-7,24-18,36-33,38c-18,3-24-4-33-37c-9-34-15-41-35-41s-26,8-36,40c-10,31-17,40-35,40c-17,0-25-9-34-35c-6-19-16-38-23-42
		c-17-10-97-3-126,12c-35,18-116,114-105,125c5,4,41,18,81,29l71,21l4,63c2,34,3,65,1,69c-2,3-70-16-152-43l-150-50l-8-52l-9-52
		l48-56c55-65,53-69-42-69c-44,0-59,4-64,16c-3,9-6,96-6,194s-4,181-8,184C6637,5087,6603,5068,6567,5043z"/>
	<path class="st0" d="M7570,5055l-34-35l31-32l32-31l35,27c20,15,36,30,36,35c0,4-15,21-33,39l-33,32L7570,5055z"/>
	<path class="st0" d="M7812,5019c-72-80-69-39-22-323c27-164,43-208,69-191c18,11,38,67,51,146c19,112,1,428-25,435
		C7879,5088,7847,5057,7812,5019z"/>
	<path class="st0" d="M2640,5025l-155-52l-12-66l-12-66l66-64c39-38,63-69,59-76c-10-16-180-15-193,2c-6,6-13,25-17,40s-13,30-21,34
		c-19,7-45-14-45-37c0-30-33-50-83-50c-48,0-56,6-72,55c-15,44-44,39-69-10c-19-37-25-40-67-43c-41-3-50,1-92,38l-46,41l-36-71
		l-36-72l45-48c29-31,44-55,40-64c-7-18-116-99-187-140c-32-18-47-33-45-44c3-15,20-17,117-20c81-2,118,1,129,10
		c25,21,62,110,62,150c0,32,3,37,23,36c58-4,95,4,115,22l22,21l22-21c17-16,35-20,88-20s71,4,88,20l22,21l23-21c20-20,31-21,124-18
		c118,4,144,16,181,88c36,71,27,161-24,235c-14,21-24,38-22,39s38,13,80,26l77,23l7,74c3,41,5,75,3,77S2725,5054,2640,5025z"/>
	<path class="st0" d="M6888,5032c-135-42-148-48-148-69c0-13,3-23,7-23s72,21,150,47c128,43,143,50,143,70c0,13-1,23-2,22
		C7036,5078,6969,5057,6888,5032z"/>
	<path class="st0" d="M7272,5047c-29-31-28-42,7-66l28-20l28,29l29,30l-24,25C7311,5076,7299,5076,7272,5047z"/>
	<path class="st0" d="M5315,4960l-29-30l29-30c16-16,34-30,40-30s24,14,40,30l29,30l-29,30c-16,17-34,30-40,30S5331,4977,5315,4960z
		"/>
	<path class="st0" d="M4730,4955l-24-26l32-31l31-32l26,24l25,23l23-21l23-22l29,30l29,30l-24,25c-28,30-41,31-65,5l-18-20l-22,20
		C4767,4986,4758,4985,4730,4955z"/>
	<path class="st0" d="M7220,4955l-24-25l29-30l29-30l23,22l23,21l25-23l25-24l30,29l30,29l-29,30l-30,30l-24-22l-24-22l-18,20
		C7261,4986,7248,4985,7220,4955z"/>
	<path class="st0" d="M8080,4879c-17-38-31-71-29-72c94-59,149-101,146-110c-2-7-30-13-70-15l-67-3l-21,36c-26,44-46,45-65,0
		c-30-72-9-162,45-189c41-22,146-21,191,2c77,38,105,174,56,277c-23,50-115,145-141,145C8119,4950,8098,4918,8080,4879z"/>
	<path class="st0" d="M5022,4860c-31-14-47-29-58-56l-16-37l44-38l43-38l-83-1c-81,0-83,1-93,28c-31,77-51,82-79,18l-19-46h-60
		c-79,0-203-18-244-35c-51-21-87-63-87-100c0-49,24-63,120-72c77-6,81-8,45-14c-60-12-171-10-220,2c-25,6-56,22-71,36
		c-25,23-26,29-21,84c9,107-49,116-86,13c-25-72-20-178,12-223c46-65,175-95,307-72c91,16,139,44,164,96c27,55,25,91-5,120
		c-21,22-33,25-90,25c-37,0-65,4-65,10c0,14,116,13,143-1c12-6,34-23,49-37c24-22,33-24,75-18c26,3,60,15,74,26c26,19,27,19,44,0
		c37-41,173-37,225,7c17,14,30,20,30,14c0-29,120-58,190-46c21,3,46,14,57,24c18,18,20,18,41,0c34-27,95-33,136-14
		c20,10,36,21,36,26c0,4,19-1,43-11c56-26,148-26,205,0c144,65,201,278,87,326c-66,27-136-7-231-113l-51-57l-21,47
		c-23,52-45,55-57,9c-10-42-24-52-70-52s-60,10-70,53c-13,52-56,45-70-11c-4-15-12-30-18-34c-14-9-137-11-137-2c0,3,11,19,25,36
		c45,53,25,110-48,137C5106,4885,5071,4882,5022,4860z M5841,4724c19-23-9-41-76-49c-78-10-86-3-36,33
		C5777,4743,5820,4749,5841,4724z"/>
	<path class="st0" d="M6230,4858c-32-34-62-127-68-205l-5-72l37-37c36-36,37-36,106-32c60,3,73,7,99,32c36,35,53,81,53,145
		c0,92-66,165-169,184C6257,4878,6246,4875,6230,4858z M6330,4710c22-11,40-24,40-29c0-22-102-22-116,0c-9,15,6,49,22,49
		C6284,4730,6309,4721,6330,4710z"/>
	<path class="st0" d="M3502,4812c-12-9-30-40-40-67c-15-42-22-51-46-53c-54-7-74,5-86,49c-9,33-15,40-32,37c-14-2-25-15-32-36
		c-14-41-30-52-77-52c-28,0-46,9-82,41l-46,40l-36-71l-36-72l46-49c44-47,46-51,32-72c-11-18-137-108-213-153c-11-6-15-16-11-27
		c5-15,23-17,120-17c96,0,116,3,130,18c27,30,57,105,57,145v37h54c37,0,61,6,77,19c24,19,25,19,48,0c33-27,114-26,141,1l20,20l31-22
		c21-16,45-23,75-23c63,0,105,43,112,114c6,68-14,135-53,177c-28,30-38,34-81,34C3543,4830,3517,4823,3502,4812z M3624,4718
		c21-29,21-88,1-88c-25,0-50,52-46,98C3581,4748,3608,4742,3624,4718z"/>
	<path class="st0" d="M2315,4420l-29-30l34-35l34-35l33,32l33,32l-32,33c-18,18-35,33-38,33S2331,4436,2315,4420z"/>
	<path class="st0" d="M2042,4417c-29-31-28-42,6-66l29-20l21,22l22,21l25-24l25-24l30,29l30,29l-29,30l-30,30l-24-22l-24-22l-18,20
		C2082,4446,2068,4445,2042,4417z"/>
	<path class="st0" d="M3210,4415l-24-26l32-31l31-32l24,22l23,22l22-22l22-23l32,32l32,32l-24,26c-28,30-41,31-65,5l-18-20l-22,20
		C3247,4446,3238,4445,3210,4415z"/>
	<path class="st0" d="M3361,4007c-23-29-47-73-56-96c-19-56-19-145,1-204c26-78,110-158,136-131c4,3-6,31-20,62c-25,52-27,68-27,177
		c1,108,3,126,27,177c14,31,24,59,20,62C3425,4071,3396,4054,3361,4007z"/>
	<path class="st0" d="M3843,4010l-43-48l20-123c24-146,34-176,55-159c25,21,38,111,33,239c-2,66-8,125-14,130
		C3889,4055,3868,4039,3843,4010z"/>
	<path class="st0" d="M6494,4046c-3-8,4-32,15-53c48-95,50-236,4-351c-14-35-22-66-19-69c14-14,59,12,91,54c43,57,69,139,63,202
		c-6,62-47,147-92,194C6516,4063,6502,4068,6494,4046z"/>
	<path class="st0" d="M4895,4018c-49-17-92-32-94-34s-7-22-11-46c-8-40-6-45,31-89c21-26,39-50,39-53s-39-6-88-6
		c-98,0-132,14-132,55c0,27-17,42-32,27c-18-18-28-86-17-125c17-64,53-78,181-75c96,3,109,5,131,26l25,24l29-21c39-29,93-37,129-18
		c25,13,32,13,49,1c24-18,76-18,100,0c16,12,22,12,42-1c33-22,125-13,163,16l30,22l28-21c39-29,90-35,134-17c30,13,39,23,48,59
		c7,23,9,62,6,86c-6,45-31,102-45,102c-5,0-21-18-36-41l-27-41l29-30l28-30l-55,7c-30,4-62,13-71,19c-22,16-82,86-78,91
		c2,2,27,12,54,22c49,18,50,19,56,68c3,28,5,51,4,52c-1,2-46-12-100-30c-68-23-101-39-106-53c-13-33-10-81,6-94c9-7,25-26,36-42
		l20-28h-59c-58,0-60,1-71,30c-13,38-29,38-43-1c-9-28-14-30-51-27c-34,2-42,7-47,27c-8,36-27,36-45,2c-14-27-21-31-58-31
		c-38,0-48,5-95,53l-53,53l56,18c60,19,60,19,69,84C5011,4059,5014,4058,4895,4018z"/>
	<path class="st0" d="M6246,4022l-38-26l6-93c8-109,9-108-101-115c-78-6-117-24-135-63c-14-32,4-55,43-55c16,0,29-4,29-10
		c0-20-130-4-153,19c-6,6-14,32-17,58c-3,25-10,48-17,50c-23,8-47-48-48-108c0-47,4-62,24-83c58-61,226-62,287-1c28,28,32,76,8,99
		c-8,9-11,16-6,16s15-7,22-15c14-17,81-20,97-4c8,8,17,8,31,0c11-6,41-11,67-11c35,0,51,6,70,25c22,21,25,33,25,91
		c0,62-21,134-40,134c-10,0-60-65-60-78c0-5,9-17,20-27c23-21,18-35-14-35c-40,0-46,17-46,142c0,65-3,118-7,117
		C6288,4049,6268,4037,6246,4022z M6093,3713c-13-2-33-2-45,0c-13,2-3,4,22,4S6105,3715,6093,3713z"/>
	<path class="st0" d="M4355,4020c-18-20-18-21,4-43c21-21,23-21,32-4c10,18,12,18,30,1c19-17,21-17,42,4l21,22l-21,22
		c-19,18-24,19-38,8c-12-10-19-10-27-2C4382,4044,4376,4043,4355,4020z"/>
	<path class="st0" d="M5585,4020c-17-19-17-21,0-40c16-18,20-19,35-5c14,13,18,13,31-1c14-13,17-12,34,6c17,19,17,21,0,40
		c-16,18-20,19-35,5c-14-13-18-13-31,1C5605,4039,5602,4038,5585,4020z"/>
	<path class="st0" d="M5215,3970c-17-19-17-21,0-40c10-11,23-20,30-20s20,9,30,20c17,19,17,21,0,40c-10,11-23,20-30,20
		S5225,3981,5215,3970z"/>
	<path class="st0" d="M4386,3897c-31-41-32-49-6-72c26-24,17-35-30-35c-39,0-39,0-33,35c14,89-86,84-133-6c-17-34-37-33-87,3
		c-16,11-30,18-32,16c-1-1-12-21-23-43l-20-40l30-32c18-18,27-36,23-43s-38-32-76-56c-92-60-91-74,5-74c69,0,76,2,95,27
		c12,14,24,43,27,65c5,28,11,38,25,38c11,0,19-4,19-10c0-5,14-25,31-45c52-59,127-43,117,25c-5,30-4,30,44,30c39,0,54,5,73,25
		c21,21,25,33,25,89c0,62-23,136-41,136C4414,3930,4400,3915,4386,3897z M4268,3808c-3-7-15-14-29-16c-23-2-23-2-5,13
		C4258,3823,4273,3825,4268,3808z M4265,3671c10-17-11-21-31-6c-18,14-18,14,3,15C4249,3680,4261,3676,4265,3671z"/>
	<path class="st0" d="M3585,3890c-35-38,11-79,48-42c20,21,20,22,2,42C3613,3915,3608,3915,3585,3890z"/>
	<path class="st0" d="M3713,3848c-6-7-18-28-27-46c-17-32-16-34,9-63c45-54,32-69-64-69c-73,0-96,16-96,67c0,31-3,38-20,38
		c-36,0-58-106-33-159c17-39,55-58,122-63c101-7,163,40,173,131C3786,3762,3740,3881,3713,3848z"/>
	<path class="st0" d="M6346,3632c-15-18-15-20,3-36c16-15,22-15,39-5c16,10,24,10,35,1s18-8,32,8c18,19,18,22,2,38
		c-15,14-20,15-38,3c-15-9-24-10-32-2C6372,3654,6366,3653,6346,3632z"/>
	<path class="st0" d="M5054,3619c-17-18-17-21-1-37c13-13,21-14,35-6c12,8,22,8,34,1c18-12,48,6,48,29c0,20-34,36-49,21
		c-9-9-16-9-30,0C5075,3637,5069,3635,5054,3619z"/>
	<path class="st0" d="M6376,3572c-15-18-15-20,4-37c20-18,21-18,43,4s22,22,3,37C6401,3594,6397,3594,6376,3572z"/>
</g>
</svg>
